<svg xmlns="http://www.w3.org/2000/svg" version="1.1" xmlns:xlink="http://www.w3.org/1999/xlink" viewBox="0 0 200 200"><rect width="200" height="200" fill="url('#gradient')"></rect><defs><linearGradient id="gradient" gradientTransform="rotate(158 0.5 0.5)"><stop offset="0%" stop-color="#3045ff"></stop><stop offset="100%" stop-color="#3045ff"></stop></linearGradient></defs><g><g fill="#ffffff" transform="matrix(2.2634973504920515,0,0,2.2634973504920515,26.732426705461265,112.50328452194756)" stroke="#4e3b3b" stroke-width="0.2"><path d="M4.95 0L1.65 0L1.65-8.28L0.12-8.28L0.12-10.57L1.65-10.57L1.65-11.41Q1.65-13.21 2.71-14.21Q3.78-15.21 5.70-15.21L5.70-15.21Q6.41-15.21 7.25-15L7.25-15L7.26-12.58Q6.95-12.67 6.45-12.67L6.45-12.67Q4.95-12.67 4.95-11.38L4.95-11.38L4.95-10.57L7.01-10.57L7.01-8.28L4.95-8.28L4.95 0ZM11.64-10.57L11.64 0L8.34 0L8.34-10.57L11.64-10.57ZM8.14-13.29L8.14-13.29Q8.14-13.99 8.65-14.44Q9.16-14.89 9.97-14.89Q10.78-14.89 11.29-14.44Q11.80-13.99 11.80-13.29Q11.80-12.59 11.29-12.14Q10.78-11.69 9.97-11.69Q9.16-11.69 8.65-12.14Q8.14-12.59 8.14-13.29ZM20.12-10.64L20.06-7.59L18.97-7.67Q17.42-7.67 16.98-6.69L16.98-6.69L16.98 0L13.69 0L13.69-10.57L16.78-10.57L16.88-9.21Q17.71-10.76 19.20-10.76L19.20-10.76Q19.73-10.76 20.12-10.64L20.12-10.64ZM26.78-2.97L26.78-2.97Q26.78-3.39 26.34-3.64Q25.90-3.90 24.67-4.17Q23.44-4.44 22.64-4.89Q21.84-5.33 21.42-5.97Q21.00-6.60 21.00-7.42L21.00-7.42Q21.00-8.88 22.20-9.82Q23.40-10.76 25.34-10.76L25.34-10.76Q27.43-10.76 28.70-9.81Q29.97-8.87 29.97-7.32L29.97-7.32L26.67-7.32Q26.67-8.59 25.33-8.59L25.33-8.59Q24.81-8.59 24.46-8.31Q24.11-8.02 24.11-7.59L24.11-7.59Q24.11-7.15 24.54-6.88Q24.97-6.60 25.91-6.43Q26.86-6.25 27.57-6.01L27.57-6.01Q29.95-5.19 29.95-3.07L29.95-3.07Q29.95-1.62 28.67-0.71Q27.38 0.20 25.34 0.20L25.34 0.20Q23.98 0.20 22.92-0.29Q21.86-0.78 21.26-1.62Q20.66-2.46 20.66-3.39L20.66-3.39L23.74-3.39Q23.76-2.66 24.23-2.32Q24.70-1.98 25.43-1.98L25.43-1.98Q26.10-1.98 26.44-2.26Q26.78-2.53 26.78-2.97ZM32.03-13.19L35.32-13.19L35.32-10.57L37.06-10.57L37.06-8.28L35.32-8.28L35.32-3.45Q35.32-2.85 35.54-2.62Q35.75-2.38 36.39-2.38L36.39-2.38Q36.88-2.38 37.21-2.44L37.21-2.44L37.21-0.09Q36.32 0.20 35.35 0.20L35.35 0.20Q33.65 0.20 32.84-0.61Q32.03-1.41 32.03-3.04L32.03-3.04L32.03-8.28L30.68-8.28L30.68-10.57L32.03-10.57L32.03-13.19ZM42.95-5.24L42.95-5.36Q42.95-6.96 43.48-8.19Q44.00-9.42 44.99-10.09Q45.98-10.76 47.29-10.76L47.29-10.76Q48.94-10.76 49.86-9.65L49.86-9.65L49.98-10.57L52.97-10.57L52.97-0.40Q52.97 1.00 52.32 2.03Q51.67 3.06 50.44 3.61Q49.21 4.16 47.59 4.16L47.59 4.16Q46.43 4.16 45.34 3.72Q44.25 3.28 43.67 2.58L43.67 2.58L45.05 0.64Q45.97 1.73 47.47 1.73L47.47 1.73Q49.66 1.73 49.66-0.52L49.66-0.52L49.66-0.85Q48.71 0.20 47.27 0.20L47.27 0.20Q45.33 0.20 44.14-1.28Q42.95-2.76 42.95-5.24L42.95-5.24ZM46.25-5.16L46.25-5.16Q46.25-3.86 46.74-3.10Q47.23-2.34 48.11-2.34L48.11-2.34Q49.17-2.34 49.66-3.06L49.66-3.06L49.66-7.50Q49.18-8.22 48.13-8.22L48.13-8.22Q47.25-8.22 46.75-7.44Q46.25-6.65 46.25-5.16ZM54.43-4.82L54.42-5.38Q54.42-6.96 55.04-8.20Q55.65-9.43 56.81-10.10Q57.96-10.76 59.51-10.76L59.51-10.76Q61.88-10.76 63.25-9.29Q64.62-7.82 64.62-5.29L64.62-5.29L64.62-5.18Q64.62-2.71 63.25-1.25Q61.88 0.20 59.53 0.20L59.53 0.20Q57.28 0.20 55.91-1.16Q54.54-2.51 54.43-4.82L54.43-4.82ZM57.72-5.77L57.71-5.18Q57.71-3.71 58.17-3.03Q58.63-2.34 59.53-2.34L59.53-2.34Q61.29-2.34 61.33-5.05L61.33-5.05L61.33-5.38Q61.33-8.22 59.51-8.22L59.51-8.22Q57.86-8.22 57.72-5.77L57.72-5.77Z"></path></g></g></svg>